HIERARCHY
ROOT Hips
{
	OFFSET 0.000000 35.082581 0.000000
	CHANNELS 6 Xposition Yposition Zposition Xrotation Yrotation Zrotation 
	JOINT Spine
	{
		OFFSET 0.000000 6.876099 0.125700
		CHANNELS 3 Xrotation Yrotation Zrotation
		JOINT Spine1
		{
			OFFSET 0.000000 5.730043 0.104720
			CHANNELS 3 Xrotation Yrotation Zrotation
			JOINT Spine1_split
			{
				OFFSET 0.000000 5.730043 0.104720
				CHANNELS 3 Xrotation Yrotation Zrotation
				JOINT Spine2
				{
					OFFSET 0.000000 5.730043 0.104720
					CHANNELS 3 Xrotation Yrotation Zrotation
					JOINT Neck
					{
						OFFSET 0.000000 10.314075 0.188496
						CHANNELS 3 Xrotation Yrotation Zrotation
						JOINT Head
						{
							OFFSET 0.000000 7.643700 -2.377400
							CHANNELS 3 Xrotation Yrotation Zrotation
							JOINT HeadTop_End
							{
								OFFSET 0.000000 43.788605 -13.619600
								CHANNELS 3 Xrotation Yrotation Zrotation
								End Site
								{
									OFFSET 0.000000 0.000000 0.000000
								}
							}
						}
					}
					JOINT LeftShoulder
					{
						OFFSET 2.196100 4.412489 0.087492
						CHANNELS 3 Xrotation Yrotation Zrotation
						JOINT LeftShoulder_split
						{
							OFFSET 2.196100 4.412489 0.087492
							CHANNELS 3 Xrotation Yrotation Zrotation
							JOINT LeftArm
							{
								OFFSET 8.771219 -2.981674 -0.026999
								CHANNELS 3 Xrotation Yrotation Zrotation
								JOINT LeftForeArm
								{
									OFFSET 8.512804 0.000000 -0.000000
									CHANNELS 3 Xrotation Yrotation Zrotation
									JOINT LeftHand
									{
										OFFSET 18.484802 0.000000 -0.000000
										CHANNELS 3 Xrotation Yrotation Zrotation
										JOINT LeftHandThumb1
										{
											OFFSET 2.499420 -1.158070 2.653252
											CHANNELS 3 Xrotation Yrotation Zrotation
											JOINT LeftHandThumb2
											{
												OFFSET 2.370079 -1.368366 1.368366
												CHANNELS 3 Xrotation Yrotation Zrotation
												JOINT LeftHandThumb3
												{
													OFFSET 2.676727 -1.545410 1.545409
													CHANNELS 3 Xrotation Yrotation Zrotation
													JOINT LeftHandThumb4
													{
														OFFSET 1.692226 -0.977005 0.977007
														CHANNELS 3 Xrotation Yrotation Zrotation
														End Site
														{
															OFFSET 0.000000 0.000000 0.000000
														}
													}
												}
											}
										}
										JOINT LeftHandIndex1
										{
											OFFSET 7.924831 -0.457527 2.345128
											CHANNELS 3 Xrotation Yrotation Zrotation
											JOINT LeftHandIndex2
											{
												OFFSET 3.643303 0.000000 0.000000
												CHANNELS 3 Xrotation Yrotation Zrotation
												JOINT LeftHandIndex3
												{
													OFFSET 3.810799 0.000000 0.000000
													CHANNELS 3 Xrotation Yrotation Zrotation
													JOINT LeftHandIndex4
													{
														OFFSET 2.403702 0.000000 0.000000
														CHANNELS 3 Xrotation Yrotation Zrotation
														End Site
														{
															OFFSET 0.000000 0.000000 0.000000
														}
													}
												}
											}
										}
										JOINT LeftHandMiddle1
										{
											OFFSET 8.563995 0.000000 -0.000000
											CHANNELS 3 Xrotation Yrotation Zrotation
											JOINT LeftHandMiddle2
											{
												OFFSET 3.861618 0.000000 0.000000
												CHANNELS 3 Xrotation Yrotation Zrotation
												JOINT LeftHandMiddle3
												{
													OFFSET 3.701603 0.000000 0.000000
													CHANNELS 3 Xrotation Yrotation Zrotation
													JOINT LeftHandMiddle4
													{
														OFFSET 2.322544 0.000000 0.000000
														CHANNELS 3 Xrotation Yrotation Zrotation
														End Site
														{
															OFFSET 0.000000 0.000000 0.000000
														}
													}
												}
											}
										}
										JOINT LeftHandRing1
										{
											OFFSET 8.426460 -0.424637 -3.286992
											CHANNELS 3 Xrotation Yrotation Zrotation
											JOINT LeftHandRing2
											{
												OFFSET 3.126408 0.000000 0.000000
												CHANNELS 3 Xrotation Yrotation Zrotation
												JOINT LeftHandRing3
												{
													OFFSET 3.085026 0.000000 0.000000
													CHANNELS 3 Xrotation Yrotation Zrotation
													JOINT LeftHandRing4
													{
														OFFSET 1.644005 0.000000 0.000000
														CHANNELS 3 Xrotation Yrotation Zrotation
														End Site
														{
															OFFSET 0.000000 0.000000 0.000000
														}
													}
												}
											}
										}
									}
								}
							}
						}
					}
					JOINT RightShoulder
					{
						OFFSET -2.196100 4.412496 0.070690
						CHANNELS 3 Xrotation Yrotation Zrotation
						JOINT RightShoulder_split
						{
							OFFSET -2.196100 4.412496 0.070690
							CHANNELS 3 Xrotation Yrotation Zrotation
							JOINT RightArm
							{
								OFFSET -8.771282 -2.981682 -0.094208
								CHANNELS 3 Xrotation Yrotation Zrotation
								JOINT RightForeArm
								{
									OFFSET -8.494598 0.000000 0.000000
									CHANNELS 3 Xrotation Yrotation Zrotation
									JOINT RightHand
									{
										OFFSET -18.483803 0.000000 0.000001
										CHANNELS 3 Xrotation Yrotation Zrotation
										JOINT RightHandThumb1
										{
											OFFSET -2.527351 -1.008072 2.575253
											CHANNELS 3 Xrotation Yrotation Zrotation
											JOINT RightHandThumb2
											{
												OFFSET -2.321518 -1.340328 1.340329
												CHANNELS 3 Xrotation Yrotation Zrotation
												JOINT RightHandThumb3
												{
													OFFSET -2.657753 -1.534454 1.534455
													CHANNELS 3 Xrotation Yrotation Zrotation
													JOINT RightHandThumb4
													{
														OFFSET -1.807510 -1.043568 1.043567
														CHANNELS 3 Xrotation Yrotation Zrotation
														End Site
														{
															OFFSET 0.000000 0.000000 0.000000
														}
													}
												}
											}
										}
										JOINT RightHandIndex1
										{
											OFFSET -8.811420 0.015533 2.887987
											CHANNELS 3 Xrotation Yrotation Zrotation
											JOINT RightHandIndex2
											{
												OFFSET -3.537502 0.000000 0.000000
												CHANNELS 3 Xrotation Yrotation Zrotation
												JOINT RightHandIndex3
												{
													OFFSET -3.356201 0.000000 0.000000
													CHANNELS 3 Xrotation Yrotation Zrotation
													JOINT RightHandIndex4
													{
														OFFSET -1.933098 0.000000 0.000000
														CHANNELS 3 Xrotation Yrotation Zrotation
														End Site
														{
															OFFSET 0.000000 0.000000 0.000000
														}
													}
												}
											}
										}
										JOINT RightHandMiddle1
										{
											OFFSET -8.178135 0.000000 0.000000
											CHANNELS 3 Xrotation Yrotation Zrotation
											JOINT RightHandMiddle2
											{
												OFFSET -3.901302 0.000000 0.000000
												CHANNELS 3 Xrotation Yrotation Zrotation
												JOINT RightHandMiddle3
												{
													OFFSET -3.909599 0.000000 0.000000
													CHANNELS 3 Xrotation Yrotation Zrotation
													JOINT RightHandMiddle4
													{
														OFFSET -2.376003 0.000000 0.000000
														CHANNELS 3 Xrotation Yrotation Zrotation
														End Site
														{
															OFFSET 0.000000 0.000000 0.000000
														}
													}
												}
											}
										}
										JOINT RightHandRing1
										{
											OFFSET -7.559013 0.014137 -2.865403
											CHANNELS 3 Xrotation Yrotation Zrotation
											JOINT RightHandRing2
											{
												OFFSET -3.449306 0.000000 0.000000
												CHANNELS 3 Xrotation Yrotation Zrotation
												JOINT RightHandRing3
												{
													OFFSET -3.362106 0.000000 0.000000
													CHANNELS 3 Xrotation Yrotation Zrotation
													JOINT RightHandRing4
													{
														OFFSET -2.076401 0.000000 0.000000
														CHANNELS 3 Xrotation Yrotation Zrotation
														End Site
														{
															OFFSET 0.000000 0.000000 0.000000
														}
													}
												}
											}
										}
									}
								}
							}
						}
					}
				}
			}
		}
	}
	JOINT LeftUpLeg
	{
		OFFSET 10.205400 -3.823500 0.155100
		CHANNELS 3 Xrotation Yrotation Zrotation
		JOINT LeftLeg
		{
			OFFSET 0.708757 -12.982077 0.567790
			CHANNELS 3 Xrotation Yrotation Zrotation
			JOINT LeftFoot
			{
				OFFSET -0.708756 -10.717838 -2.184338
				CHANNELS 3 Xrotation Yrotation Zrotation
				JOINT LeftToeBase
				{
					OFFSET 0.108149 -7.191104 7.560241
					CHANNELS 3 Xrotation Yrotation Zrotation
					JOINT LeftToe_End
					{
						OFFSET 0.070230 0.081724 4.490308
						CHANNELS 3 Xrotation Yrotation Zrotation
						End Site
						{
							OFFSET 0.000000 0.000000 0.000000
						}
					}
				}
			}
		}
	}
	JOINT RightUpLeg
	{
		OFFSET -10.205400 -3.823500 0.005500
		CHANNELS 3 Xrotation Yrotation Zrotation
		JOINT RightLeg
		{
			OFFSET -0.708756 -12.982134 0.610632
			CHANNELS 3 Xrotation Yrotation Zrotation
			JOINT RightFoot
			{
				OFFSET 0.708754 -10.717769 -1.945823
				CHANNELS 3 Xrotation Yrotation Zrotation
				JOINT RightToeBase
				{
					OFFSET -0.108140 -7.191069 7.372968
					CHANNELS 3 Xrotation Yrotation Zrotation
					JOINT RightToe_End
					{
						OFFSET -0.070227 0.081735 4.479403
						CHANNELS 3 Xrotation Yrotation Zrotation
						End Site
						{
							OFFSET 0.000000 0.000000 0.000000
						}
					}
				}
			}
		}
	}
}
MOTION
Frames: 5
Frame Time: 0.016667
0.088818 34.084480 -0.725035 -9.639237 5.104887 4.629866 15.772681 -5.179723 -2.438086 2.828925 -1.297233 -0.520220 0.000000 0.000000 0.000000 2.839534 -1.291909 -0.480963 -10.214221 -0.289804 1.928838 0.642531 3.946485 -0.951178 -0.000000 0.000000 0.000000 1.783139 -2.817875 -5.367173 0.000000 0.000000 0.000000 8.347180 -11.449690 -68.845971 0.000004 -33.539033 0.000013 -23.608522 5.693682 2.838399 -3.469780 3.607311 7.883178 9.703641 22.223511 2.891183 -5.879069 9.699138 15.674869 -0.000003 -0.000000 -0.000002 0.162358 3.429612 -10.498179 0.209643 1.554735 -15.358561 0.209658 1.554739 -15.358589 0.000000 0.000000 0.000001 0.362541 4.206375 -18.344228 0.474607 2.311794 -23.200232 0.474614 2.311801 -23.200228 -0.000000 0.000000 0.000002 0.689021 4.991714 -26.673260 0.865730 3.066787 -31.521446 0.865732 3.066785 -31.521449 -0.000000 0.000000 0.000000 0.815665 9.465471 15.261703 0.000000 0.000000 0.000000 -2.962834 1.768758 67.176700 0.000004 20.011857 -0.000028 1.318013 -7.062435 -8.055853 -1.986192 -5.435651 -3.761585 8.766474 -20.697691 -3.062068 -5.504775 -5.510982 -14.718513 0.000002 0.000000 -0.000002 2.057117 -6.108254 55.293564 5.419350 -4.594507 99.429386 3.163289 -4.411568 71.271269 -0.000000 -0.000001 -0.000000 2.592842 -6.426537 62.973443 4.946632 -4.648187 93.567315 3.098035 -4.388954 70.420575 -0.000001 0.000002 -0.000002 2.854989 -6.549346 66.538610 4.919151 -4.649807 93.228216 2.921296 -4.322222 68.093926 0.000002 -0.000000 0.000001 -18.405517 6.830164 -1.723816 51.814133 -4.668225 -0.660932 2.693143 -0.293674 -0.728410 -15.787127 -1.138205 4.558169 0.000000 0.000000 -0.000000 -5.325169 -6.366888 -3.527022 29.429339 6.187581 4.664087 -14.661763 1.432560 -8.016424 -1.006313 0.000007 -0.000000 -0.000000 -0.000000 -0.000000 
0.055747 34.053688 0.098118 -9.484884 4.476396 4.579965 15.688320 -5.006006 -2.575860 2.864633 -1.219264 -0.580729 0.000000 0.000000 0.000000 2.874597 -1.216439 -0.545703 -10.293791 -0.276140 1.920122 0.424423 4.055672 -0.967051 0.000000 -0.000000 -0.000000 1.743985 -3.170781 -5.307259 0.000000 0.000000 0.000000 8.560798 -9.744674 -69.768654 -0.000036 -31.640756 -0.000006 -20.354017 6.201450 1.849363 -3.469776 3.607314 7.883184 9.703640 22.223509 2.891186 -5.879070 9.699135 15.674871 -0.000002 -0.000000 -0.000004 0.162358 3.429613 -10.498181 0.209643 1.554735 -15.358558 0.209657 1.554740 -15.358587 0.000000 -0.000000 0.000002 0.362541 4.206375 -18.344228 0.474607 2.311794 -23.200228 0.474614 2.311800 -23.200232 -0.000000 -0.000000 0.000002 0.689021 4.991711 -26.673262 0.865730 3.066787 -31.521443 0.865733 3.066785 -31.521449 0.000000 0.000000 -0.000001 0.830237 9.367769 15.335581 0.000000 0.000000 0.000000 -2.994201 1.838917 66.790453 0.000006 20.328292 -0.000002 1.692684 -7.849704 -8.272414 -1.986190 -5.435651 -3.761589 8.766472 -20.697696 -3.062072 -5.504778 -5.510984 -14.718516 0.000002 -0.000002 -0.000000 2.057118 -6.108255 55.293564 5.419351 -4.594506 99.429386 3.163288 -4.411568 71.271269 0.000001 0.000001 -0.000003 2.592843 -6.426537 62.973443 4.946632 -4.648190 93.567308 3.098040 -4.388951 70.420575 -0.000004 0.000001 -0.000001 2.854989 -6.549348 66.538603 4.919150 -4.649808 93.228223 2.921296 -4.322223 68.093919 0.000000 -0.000001 0.000003 -20.297939 7.347848 -3.389088 46.880472 -4.803488 -0.601309 5.306184 -0.557995 0.545261 -13.712828 -0.986263 4.662632 0.000001 -0.000000 -0.000000 -3.606114 -6.626701 -3.440484 29.406246 6.202667 4.749933 -16.381235 2.437433 -8.241705 -1.006313 0.000001 -0.000002 0.000000 0.000000 -0.000000 
0.062810 34.005516 0.969082 -9.305990 3.903893 4.479585 15.529675 -4.825354 -2.636622 2.925970 -1.153219 -0.636157 0.000000 0.000000 0.000000 2.934974 -1.152664 -0.605376 -10.373091 -0.263188 1.911384 0.194516 4.155698 -0.959679 -0.000000 -0.000000 -0.000000 1.706080 -3.362185 -5.359653 0.000000 0.000000 0.000000 8.566212 -8.219129 -70.564829 -0.000012 -29.568937 0.000024 -16.683198 6.782385 0.412775 -3.469778 3.607309 7.883181 9.703644 22.223516 2.891186 -5.879072 9.699134 15.674869 -0.000003 -0.000003 -0.000002 0.162358 3.429613 -10.498180 0.209643 1.554735 -15.358561 0.209657 1.554740 -15.358590 0.000000 0.000000 -0.000002 0.362541 4.206375 -18.344227 0.474607 2.311794 -23.200228 0.474614 2.311801 -23.200242 0.000000 -0.000001 -0.000000 0.689021 4.991712 -26.673260 0.865730 3.066786 -31.521443 0.865733 3.066785 -31.521446 -0.000001 -0.000001 -0.000000 0.840513 9.300000 15.386780 0.000000 0.000000 0.000000 -3.179687 1.962947 66.379228 -0.000003 20.310428 -0.000009 1.979817 -8.025349 -8.406082 -1.986191 -5.435656 -3.761587 8.766474 -20.697696 -3.062070 -5.504775 -5.510981 -14.718511 -0.000000 -0.000000 -0.000000 2.057118 -6.108254 55.293568 5.419349 -4.594509 99.429386 3.163288 -4.411565 71.271275 -0.000000 0.000001 0.000000 2.592844 -6.426536 62.973443 4.946634 -4.648190 93.567315 3.098037 -4.388950 70.420569 -0.000001 0.000000 0.000004 2.854990 -6.549346 66.538610 4.919150 -4.649808 93.228223 2.921296 -4.322223 68.093926 0.000001 -0.000000 0.000002 -22.086385 7.373624 -4.456360 42.641168 -4.561942 -0.529142 6.494765 -0.146845 0.198233 -7.945542 -0.566811 5.245388 -0.000001 0.000000 0.000000 -1.674595 -6.770130 -3.366236 29.147105 6.242162 4.829488 -18.120804 3.262281 -8.324728 -1.006317 0.000003 -0.000000 0.000000 0.000000 -0.000000 
0.067307 33.954250 1.941556 -9.112019 3.256068 4.374823 15.361621 -4.618234 -2.716981 2.992096 -1.077589 -0.696962 0.000000 0.000000 0.000000 3.000081 -1.079578 -0.670915 -10.460872 -0.248840 1.903442 -0.064420 4.273280 -0.953784 -0.000000 0.000000 0.000000 1.662389 -3.586404 -5.415224 0.000000 0.000000 0.000000 8.625615 -6.507529 -71.432379 -0.000004 -27.273639 0.000025 -12.557439 7.323403 -1.225745 -3.469779 3.607309 7.883176 9.703643 22.223516 2.891184 -5.879069 9.699135 15.674871 -0.000003 0.000003 -0.000003 0.162358 3.429612 -10.498180 0.209643 1.554735 -15.358560 0.209657 1.554739 -15.358587 0.000001 -0.000000 -0.000005 0.362541 4.206375 -18.344228 0.474607 2.311794 -23.200226 0.474614 2.311800 -23.200237 0.000001 -0.000000 -0.000000 0.689022 4.991712 -26.673262 0.865730 3.066789 -31.521446 0.865732 3.066785 -31.521446 -0.000001 0.000001 0.000000 0.852767 9.220262 15.447135 0.000000 0.000000 0.000000 -3.645496 2.192709 65.984224 0.000006 19.518041 -0.000028 2.258844 -7.623031 -8.499329 -1.986192 -5.435648 -3.761585 8.766473 -20.697696 -3.062066 -5.504777 -5.510974 -14.718516 -0.000002 -0.000003 -0.000000 2.057117 -6.108255 55.293564 5.419349 -4.594510 99.429393 3.163288 -4.411568 71.271269 -0.000001 -0.000000 -0.000001 2.592841 -6.426538 62.973436 4.946633 -4.648190 93.567308 3.098036 -4.388950 70.420575 -0.000001 0.000001 -0.000003 2.854989 -6.549348 66.538603 4.919151 -4.649808 93.228216 2.921299 -4.322221 68.093926 -0.000002 -0.000000 -0.000000 -23.183182 7.304850 -5.613674 36.391180 -4.333130 -0.455771 8.368716 0.362233 0.130125 -3.477427 -0.056084 1.909183 0.000000 -0.000000 0.000000 0.659389 -6.877186 -3.317638 28.419271 6.299492 4.969068 -19.805377 4.126098 -8.377178 -1.002935 0.000002 -0.000003 0.000000 -0.000000 -0.000000 
0.091442 33.905689 2.931614 -8.910088 2.661092 4.256175 15.147179 -4.414859 -2.767118 3.073983 -1.009370 -0.750863 0.000000 0.000000 0.000000 3.080798 -1.013663 -0.729508 -10.546603 -0.234952 1.897866 -0.333738 4.393884 -0.932577 0.000000 -0.000000 0.000000 1.618154 -3.693441 -5.554571 0.000000 0.000000 0.000000 8.558462 -4.941690 -72.162308 0.000005 -24.893053 0.000017 -8.130214 7.819588 -3.201278 -3.469779 3.607313 7.883181 9.703641 22.223513 2.891185 -5.879072 9.699135 15.674868 -0.000001 -0.000002 0.000001 0.162358 3.429614 -10.498182 0.209643 1.554735 -15.358561 0.209657 1.554739 -15.358589 0.000000 0.000000 -0.000004 0.362541 4.206375 -18.344230 0.474607 2.311794 -23.200232 0.474613 2.311801 -23.200233 0.000000 -0.000001 -0.000001 0.689021 4.991712 -26.673260 0.865730 3.066786 -31.521443 0.865733 3.066785 -31.521449 -0.000001 -0.000000 -0.000000 0.862266 9.159156 15.493379 0.000000 0.000000 0.000000 -3.659141 2.308776 65.526000 -0.000019 19.688153 0.000003 2.509804 -7.958371 -8.625271 -1.986192 -5.435649 -3.761585 8.766474 -20.697696 -3.062068 -5.504778 -5.510980 -14.718513 0.000001 -0.000003 -0.000001 2.057119 -6.108254 55.293564 5.419350 -4.594509 99.429393 3.163287 -4.411569 71.271275 -0.000001 -0.000001 0.000001 2.592845 -6.426537 62.973443 4.946630 -4.648187 93.567315 3.098034 -4.388952 70.420575 0.000000 -0.000001 0.000004 2.854990 -6.549349 66.538603 4.919152 -4.649810 93.228216 2.921299 -4.322222 68.093926 -0.000002 -0.000000 0.000003 -23.925406 6.873983 -6.402995 30.336931 -3.487778 -0.301599 9.189729 1.405435 -0.467711 -1.795245 -0.000000 0.000000 -0.000000 0.000000 -0.000000 3.265869 -6.891904 -3.258450 27.140583 6.343930 5.065766 -21.245390 4.810612 -8.295225 -0.994974 0.000006 0.000002 0.000000 0.000001 -0.000000 
